<svg width="27" height="27" viewBox="0 0 27 27" fill="none" xmlns="http://www.w3.org/2000/svg">
<path d="M9.04408 3.09216H17.8524C21.2079 3.09216 23.9343 5.81854 23.9343 9.17409V17.9824C23.9343 19.5954 23.2935 21.1424 22.1529 22.283C21.0124 23.4235 19.4654 24.0643 17.8524 24.0643H9.04408C5.68854 24.0643 2.96216 21.3379 2.96216 17.9824V9.17409C2.96216 7.56106 3.60293 6.0141 4.74351 4.87352C5.88409 3.73294 7.43105 3.09216 9.04408 3.09216ZM8.83436 5.18938C7.83317 5.18938 6.87299 5.5871 6.16504 6.29505C5.45709 7.00299 5.05937 7.96317 5.05937 8.96436V18.1921C5.05937 20.2788 6.74763 21.9671 8.83436 21.9671H18.0621C19.0633 21.9671 20.0235 21.5694 20.7314 20.8614C21.4394 20.1535 21.8371 19.1933 21.8371 18.1921V8.96436C21.8371 6.87764 20.1488 5.18938 18.0621 5.18938H8.83436ZM18.9534 6.76229C19.3011 6.76229 19.6345 6.90039 19.8803 7.1462C20.1261 7.39202 20.2642 7.72541 20.2642 8.07305C20.2642 8.42068 20.1261 8.75408 19.8803 8.99989C19.6345 9.24571 19.3011 9.38381 18.9534 9.38381C18.6058 9.38381 18.2724 9.24571 18.0266 8.99989C17.7808 8.75408 17.6427 8.42068 17.6427 8.07305C17.6427 7.72541 17.7808 7.39202 18.0266 7.1462C18.2724 6.90039 18.6058 6.76229 18.9534 6.76229ZM13.4482 8.3352C14.8388 8.3352 16.1724 8.88759 17.1556 9.87085C18.1389 10.8541 18.6913 12.1877 18.6913 13.5782C18.6913 14.9688 18.1389 16.3024 17.1556 17.2856C16.1724 18.2689 14.8388 18.8213 13.4482 18.8213C12.0577 18.8213 10.7241 18.2689 9.74084 17.2856C8.75758 16.3024 8.20519 14.9688 8.20519 13.5782C8.20519 12.1877 8.75758 10.8541 9.74084 9.87085C10.7241 8.88759 12.0577 8.3352 13.4482 8.3352ZM13.4482 10.4324C12.6139 10.4324 11.8138 10.7638 11.2238 11.3538C10.6338 11.9438 10.3024 12.7439 10.3024 13.5782C10.3024 14.4126 10.6338 15.2127 11.2238 15.8027C11.8138 16.3926 12.6139 16.7241 13.4482 16.7241C14.2826 16.7241 15.0827 16.3926 15.6727 15.8027C16.2626 15.2127 16.5941 14.4126 16.5941 13.5782C16.5941 12.7439 16.2626 11.9438 15.6727 11.3538C15.0827 10.7638 14.2826 10.4324 13.4482 10.4324Z" fill="#D9FFDE"/>
</svg>
