<svg width="20" height="21" viewBox="0 0 20 21" fill="none" xmlns="http://www.w3.org/2000/svg">
<path d="M6.53585 2.3291H13.4632C16.1022 2.3291 18.2463 4.47328 18.2463 7.11226V14.0396C18.2463 15.3082 17.7424 16.5248 16.8454 17.4218C15.9484 18.3188 14.7318 18.8228 13.4632 18.8228H6.53585C3.89686 18.8228 1.75269 16.6786 1.75269 14.0396V7.11226C1.75269 5.84369 2.25662 4.62707 3.15364 3.73006C4.05066 2.83304 5.26727 2.3291 6.53585 2.3291ZM6.37091 3.97847C5.58352 3.97847 4.82838 4.29126 4.27161 4.84803C3.71484 5.40479 3.40205 6.15994 3.40205 6.94733V14.2045C3.40205 15.8457 4.72979 17.1734 6.37091 17.1734H13.6281C14.4155 17.1734 15.1707 16.8606 15.7274 16.3038C16.2842 15.7471 16.597 14.9919 16.597 14.2045V6.94733C16.597 5.30621 15.2692 3.97847 13.6281 3.97847H6.37091ZM14.3291 5.21549C14.6025 5.21549 14.8647 5.3241 15.058 5.51742C15.2513 5.71074 15.36 5.97295 15.36 6.24635C15.36 6.51974 15.2513 6.78195 15.058 6.97527C14.8647 7.16859 14.6025 7.2772 14.3291 7.2772C14.0557 7.2772 13.7935 7.16859 13.6002 6.97527C13.4069 6.78195 13.2982 6.51974 13.2982 6.24635C13.2982 5.97295 13.4069 5.71074 13.6002 5.51742C13.7935 5.3241 14.0557 5.21549 14.3291 5.21549ZM9.99951 6.45252C11.0931 6.45252 12.1419 6.88695 12.9152 7.66024C13.6885 8.43353 14.1229 9.48233 14.1229 10.5759C14.1229 11.6695 13.6885 12.7183 12.9152 13.4916C12.1419 14.2649 11.0931 14.6993 9.99951 14.6993C8.90592 14.6993 7.85711 14.2649 7.08382 13.4916C6.31053 12.7183 5.8761 11.6695 5.8761 10.5759C5.8761 9.48233 6.31053 8.43353 7.08382 7.66024C7.85711 6.88695 8.90592 6.45252 9.99951 6.45252ZM9.99951 8.10188C9.34336 8.10188 8.71407 8.36254 8.2501 8.82651C7.78612 9.29049 7.52547 9.91977 7.52547 10.5759C7.52547 11.2321 7.78612 11.8614 8.2501 12.3253C8.71407 12.7893 9.34336 13.05 9.99951 13.05C10.6557 13.05 11.285 12.7893 11.7489 12.3253C12.2129 11.8614 12.4736 11.2321 12.4736 10.5759C12.4736 9.91977 12.2129 9.29049 11.7489 8.82651C11.285 8.36254 10.6557 8.10188 9.99951 8.10188Z" fill="#D9FFDE"/>
</svg>
