<svg width="21" height="21" viewBox="0 0 21 21" fill="none" xmlns="http://www.w3.org/2000/svg">
<g clip-path="url(#clip0_1216_6881)">
<path d="M10.7761 0.679688C5.31173 0.679688 0.879883 5.11153 0.879883 10.5759C0.879883 16.0402 5.31173 20.4721 10.7761 20.4721C16.2404 20.4721 20.6723 16.0402 20.6723 10.5759C20.6723 5.11153 16.2429 0.679688 10.7761 0.679688ZM5.76201 10.9082L5.80406 10.8414L8.37955 6.81368C8.38818 6.80044 8.4002 6.78976 8.41436 6.78275C8.42853 6.77575 8.44431 6.77267 8.46007 6.77385C8.47583 6.77503 8.49098 6.78042 8.50394 6.78946C8.51691 6.7985 8.52721 6.81085 8.53376 6.82522C8.9626 7.78928 9.33536 8.98837 9.16052 9.73471C9.08795 10.0415 8.88426 10.4571 8.65417 10.8414C8.62465 10.8976 8.59245 10.9524 8.55768 11.0055C8.54935 11.0174 8.53821 11.027 8.52525 11.0335C8.5123 11.0399 8.49794 11.0431 8.48346 11.0427H5.8387C5.82292 11.0429 5.80736 11.0389 5.79368 11.031C5.78 11.0231 5.76872 11.0116 5.76102 10.9979C5.75333 10.9841 5.74951 10.9685 5.74997 10.9527C5.75043 10.9369 5.75516 10.9215 5.76365 10.9082H5.76201ZM17.2366 12.2937C17.2368 12.3113 17.2319 12.3286 17.2223 12.3434C17.2128 12.3582 17.1991 12.3699 17.183 12.377C16.9826 12.4619 16.3006 12.777 16.0169 13.1703C15.2929 14.1781 14.7403 15.6196 13.5033 15.6196H8.34574C7.91028 15.619 7.47921 15.5325 7.07717 15.3652C6.67514 15.1979 6.31002 14.953 6.00267 14.6445C5.69533 14.336 5.45179 13.97 5.28597 13.5673C5.12015 13.1647 5.03531 12.7333 5.03628 12.2978V12.2384C5.03628 12.1906 5.07587 12.151 5.12535 12.151H7.99937C8.0571 12.151 8.09833 12.203 8.09421 12.2599C8.07277 12.4463 8.10823 12.6384 8.19729 12.8124C8.36718 13.1588 8.72179 13.3749 9.10362 13.3749H10.527V12.264H9.11846C9.10196 12.2638 9.08581 12.2592 9.07177 12.2505C9.05773 12.2418 9.04631 12.2295 9.03876 12.2148C9.03121 12.2001 9.02781 12.1837 9.02892 12.1672C9.03003 12.1507 9.03561 12.1349 9.04507 12.1213L9.09702 12.0471C9.22897 11.8566 9.41947 11.5639 9.60915 11.229C9.7378 11.0031 9.86315 10.7623 9.96377 10.5198C9.98356 10.4769 9.99923 10.4316 10.0174 10.3879C10.0446 10.3103 10.0726 10.2378 10.0924 10.166C10.1118 10.1052 10.1297 10.0439 10.146 9.98211C10.193 9.77594 10.2128 9.55822 10.2128 9.33309C10.2128 9.24402 10.2095 9.15083 10.2013 9.06341C10.1972 8.96693 10.1848 8.86961 10.1732 8.77313C10.164 8.68679 10.1508 8.60094 10.1336 8.51582C10.1115 8.38623 10.0845 8.25749 10.0528 8.12987L10.0413 8.08039C10.0165 7.99133 9.9951 7.90721 9.96706 7.81897C9.88854 7.54798 9.79829 7.28053 9.69657 7.01738C9.66113 6.91839 9.62206 6.82074 9.57946 6.72461C9.52009 6.57782 9.45906 6.44505 9.40381 6.32052C9.37631 6.26717 9.35046 6.21299 9.32628 6.15806C9.29946 6.09879 9.27114 6.04022 9.24134 5.9824C9.22155 5.93869 9.19763 5.89663 9.18197 5.85705L9.00796 5.53707C8.98404 5.49336 9.02363 5.43976 9.07146 5.45378L10.16 5.74819H10.1683L10.311 5.78942L10.4693 5.83396L10.527 5.84962V5.2039C10.527 4.89134 10.7761 4.63817 11.087 4.63817C11.1604 4.63797 11.2331 4.65262 11.3007 4.68125C11.3683 4.70988 11.4294 4.75189 11.4804 4.80475C11.5857 4.91096 11.6449 5.05434 11.6453 5.2039V6.16383L11.7616 6.19599C11.7698 6.20011 11.7797 6.20424 11.7871 6.21001C11.8152 6.2298 11.8564 6.26114 11.9084 6.30073C11.9496 6.33206 11.9933 6.37165 12.0444 6.41371C12.2073 6.54638 12.3652 6.68502 12.5178 6.82935C12.6943 6.99346 12.8922 7.18561 13.0819 7.3992C13.1355 7.46023 13.1866 7.51961 13.2402 7.58558C13.2914 7.65073 13.3491 7.71423 13.3969 7.77691C13.4621 7.86268 13.5289 7.95174 13.5907 8.04411C13.6179 8.08781 13.6517 8.13317 13.6773 8.17688C13.7565 8.29398 13.8241 8.41439 13.8893 8.53562C13.9173 8.59087 13.9445 8.6519 13.9684 8.71127C14.0418 8.87374 14.0995 9.03785 14.135 9.20443C14.1467 9.23979 14.1548 9.27627 14.1589 9.31329V9.32154C14.1705 9.36855 14.1746 9.4205 14.1787 9.47328C14.2019 9.71703 14.1721 9.96292 14.0913 10.1941C14.0657 10.2633 14.0418 10.3343 14.0105 10.4035C13.9486 10.5437 13.8777 10.6864 13.7928 10.8175C13.7647 10.867 13.7309 10.9181 13.6996 10.9676C13.6641 11.0196 13.6262 11.069 13.5948 11.116C13.5495 11.1785 13.5019 11.2393 13.4522 11.2983C13.4085 11.3577 13.3648 11.4171 13.3153 11.4707C13.2485 11.5515 13.1833 11.6274 13.1132 11.6999C13.0736 11.7478 13.0308 11.7972 12.9846 11.8401C12.9417 11.8896 12.8955 11.9333 12.8559 11.9729C12.7867 12.0422 12.7322 12.0941 12.6844 12.1395L12.5714 12.2401C12.5557 12.2559 12.5343 12.2648 12.512 12.2648H11.6453V13.3749H12.7355C12.9788 13.3749 13.2105 13.2891 13.3986 13.1291C13.4621 13.0738 13.7408 12.8322 14.0715 12.4677C14.0823 12.4553 14.0967 12.4466 14.1127 12.443L17.1228 11.5713C17.1361 11.5675 17.15 11.5667 17.1635 11.5692C17.177 11.5717 17.1898 11.5772 17.2009 11.5855C17.2119 11.5937 17.2208 11.6044 17.2271 11.6166C17.2333 11.6289 17.2365 11.6425 17.2366 11.6562V12.2937Z" fill="#D9FFDE"/>
</g>
<defs>
<clipPath id="clip0_1216_6881">
<rect width="19.7924" height="19.7924" fill="white" transform="translate(0.879883 0.679688)"/>
</clipPath>
</defs>
</svg>
