<svg width="26" height="27" viewBox="0 0 26 27" fill="none" xmlns="http://www.w3.org/2000/svg">
<g clip-path="url(#clip0_1105_7200)">
<path d="M12.9273 0.995117C5.97921 0.995117 0.343994 6.63033 0.343994 13.5784C0.343994 20.5265 5.97921 26.1617 12.9273 26.1617C19.8754 26.1617 25.5106 20.5265 25.5106 13.5784C25.5106 6.63033 19.8785 0.995117 12.9273 0.995117ZM6.55175 14.001L6.60523 13.9161L9.88003 8.79466C9.891 8.77782 9.90628 8.76424 9.92429 8.75533C9.9423 8.74643 9.96238 8.74252 9.98241 8.74402C10.0025 8.74552 10.0217 8.75237 10.0382 8.76386C10.0547 8.77535 10.0678 8.79106 10.0761 8.80934C10.6214 10.0352 11.0954 11.5598 10.8731 12.5088C10.7808 12.8989 10.5218 13.4274 10.2292 13.9161C10.1917 13.9875 10.1507 14.0572 10.1065 14.1247C10.0959 14.1398 10.0818 14.152 10.0653 14.1602C10.0488 14.1685 10.0306 14.1725 10.0122 14.1719H6.64927C6.6292 14.1722 6.60942 14.1671 6.59203 14.1571C6.57463 14.147 6.56029 14.1325 6.5505 14.115C6.54071 14.0974 6.53586 14.0776 6.53645 14.0575C6.53704 14.0374 6.54305 14.0179 6.55385 14.001H6.55175ZM21.1421 15.7627C21.1423 15.785 21.136 15.807 21.1239 15.8258C21.1118 15.8447 21.0944 15.8595 21.0739 15.8686C20.8191 15.9766 19.9519 16.3771 19.5912 16.8773C18.6705 18.1587 17.9679 19.9917 16.395 19.9917H9.83704C9.28333 19.9909 8.73522 19.8809 8.22402 19.6682C7.71282 19.4554 7.24856 19.144 6.85777 18.7518C6.46697 18.3595 6.1573 17.8941 5.94646 17.3821C5.73562 16.8701 5.62773 16.3216 5.62897 15.7679V15.6924C5.62897 15.6316 5.67931 15.5812 5.74222 15.5812H9.39662C9.47002 15.5812 9.52245 15.6473 9.51721 15.7197C9.48995 15.9566 9.53504 16.201 9.64829 16.4222C9.8643 16.8626 10.3152 17.1374 10.8007 17.1374H12.6106V15.7249H10.8196C10.7986 15.7247 10.7781 15.7187 10.7602 15.7077C10.7423 15.6967 10.7278 15.681 10.7182 15.6623C10.7086 15.6437 10.7043 15.6227 10.7057 15.6018C10.7071 15.5809 10.7142 15.5607 10.7263 15.5435L10.7923 15.4491C10.9601 15.2069 11.2023 14.8346 11.4435 14.4089C11.6071 14.1216 11.7665 13.8154 11.8944 13.5071C11.9196 13.4526 11.9395 13.3949 11.9626 13.3393C11.9972 13.2408 12.0328 13.1485 12.058 13.0572C12.0827 12.9799 12.1054 12.9019 12.1261 12.8234C12.1859 12.5613 12.2111 12.2844 12.2111 11.9982C12.2111 11.8849 12.2069 11.7664 12.1964 11.6553C12.1912 11.5326 12.1754 11.4088 12.1607 11.2861C12.149 11.1764 12.1322 11.0672 12.1104 10.959C12.0822 10.7942 12.0479 10.6305 12.0077 10.4682L11.993 10.4053C11.9615 10.2921 11.9342 10.1851 11.8986 10.0729C11.7987 9.72835 11.684 9.38828 11.5547 9.05366C11.5096 8.9278 11.4599 8.80363 11.4058 8.68141C11.3303 8.49476 11.2527 8.32593 11.1824 8.16759C11.1474 8.09975 11.1146 8.03086 11.0838 7.96102C11.0497 7.88566 11.0137 7.81119 10.9758 7.73766C10.9507 7.68209 10.9202 7.62861 10.9003 7.57827L10.6791 7.17141C10.6487 7.11584 10.699 7.04768 10.7598 7.0655L12.144 7.43986H12.1545L12.3359 7.49229L12.5372 7.54891L12.6106 7.56884V6.74778C12.6106 6.35035 12.9273 6.02843 13.3226 6.02843C13.416 6.02818 13.5084 6.04682 13.5943 6.08322C13.6803 6.11962 13.758 6.17304 13.8228 6.24025C13.9567 6.37529 14.032 6.55761 14.0325 6.74778V7.96836L14.1804 8.00925C14.1909 8.01449 14.2034 8.01974 14.2129 8.02708C14.2485 8.05224 14.301 8.09209 14.367 8.14242C14.4194 8.18227 14.475 8.2326 14.54 8.28608C14.7471 8.45478 14.9479 8.63107 15.1419 8.81458C15.3663 9.02325 15.618 9.26758 15.8592 9.53917C15.9273 9.61677 15.9924 9.69227 16.0605 9.77615C16.1255 9.85899 16.1989 9.93974 16.2598 10.0194C16.3426 10.1285 16.4275 10.2417 16.5062 10.3592C16.5408 10.4148 16.5838 10.4724 16.6163 10.528C16.7169 10.6769 16.8029 10.83 16.8858 10.9841C16.9214 11.0544 16.956 11.132 16.9864 11.2075C17.0798 11.4141 17.1532 11.6228 17.1983 11.8346C17.2132 11.8795 17.2234 11.9259 17.2287 11.973V11.9835C17.2433 12.0432 17.2486 12.1093 17.2538 12.1764C17.2834 12.4864 17.2454 12.799 17.1427 13.0929C17.1102 13.181 17.0798 13.2712 17.0399 13.3592C16.9613 13.5375 16.8711 13.7189 16.7631 13.8856C16.7274 13.9486 16.6844 14.0136 16.6446 14.0765C16.5995 14.1426 16.5513 14.2055 16.5114 14.2652C16.4538 14.3446 16.3932 14.4219 16.33 14.497C16.2744 14.5725 16.2189 14.648 16.1559 14.7161C16.071 14.8189 15.9882 14.9154 15.899 15.0077C15.8487 15.0685 15.7942 15.1314 15.7355 15.1859C15.6809 15.2488 15.6222 15.3044 15.5719 15.3547C15.4838 15.4428 15.4146 15.5089 15.3538 15.5666L15.2101 15.6945C15.1901 15.7146 15.1629 15.7259 15.1346 15.726H14.0325V17.1374H15.4188C15.7281 17.1374 16.0228 17.0283 16.2619 16.8249C16.3426 16.7546 16.697 16.4474 17.1175 15.9839C17.1312 15.9681 17.1496 15.9571 17.1699 15.9525L20.9974 14.8441C21.0142 14.8392 21.0319 14.8383 21.0491 14.8414C21.0663 14.8446 21.0825 14.8516 21.0966 14.8621C21.1106 14.8726 21.122 14.8861 21.1299 14.9017C21.1378 14.9174 21.1419 14.9346 21.1421 14.9521V15.7627Z" fill="#D9FFDE"/>
</g>
<defs>
<clipPath id="clip0_1105_7200">
<rect width="25.1666" height="25.1666" fill="white" transform="translate(0.343994 0.995117)"/>
</clipPath>
</defs>
</svg>
