<svg width="20" height="20" viewBox="0 0 20 20" fill="none" xmlns="http://www.w3.org/2000/svg">
<path d="M14.8358 6.18018C14.7886 6.17232 14.7336 6.17232 14.6864 6.18018C13.6011 6.14086 12.736 5.25216 12.736 4.15113C12.736 3.0265 13.6404 2.12207 14.765 2.12207C15.8896 2.12207 16.7941 3.03436 16.7941 4.15113C16.7862 5.25216 15.9211 6.14086 14.8358 6.18018Z" stroke="#22952E" stroke-width="1.17968" stroke-linecap="round" stroke-linejoin="round"/>
<path d="M14.0258 11.9055C15.1032 12.0864 16.2908 11.8976 17.1244 11.3392C18.2333 10.6 18.2333 9.38882 17.1244 8.64956C16.2829 8.09117 15.0796 7.90242 14.0022 8.09117" stroke="#22952E" stroke-width="1.17968" stroke-linecap="round" stroke-linejoin="round"/>
<path d="M5.37478 6.18018C5.42197 6.17232 5.47702 6.17232 5.5242 6.18018C6.60951 6.14086 7.47461 5.25216 7.47461 4.15113C7.47461 3.0265 6.57019 2.12207 5.44556 2.12207C4.32093 2.12207 3.4165 3.03436 3.4165 4.15113C3.42437 5.25216 4.28947 6.14086 5.37478 6.18018Z" stroke="#22952E" stroke-width="1.17968" stroke-linecap="round" stroke-linejoin="round"/>
<path d="M6.1847 11.9055C5.10726 12.0864 3.91971 11.8976 3.08607 11.3392C1.97717 10.6 1.97717 9.38882 3.08607 8.64956C3.92758 8.09117 5.13085 7.90242 6.2083 8.09117" stroke="#22952E" stroke-width="1.17968" stroke-linecap="round" stroke-linejoin="round"/>
<path d="M10.117 12.0549C10.0699 12.0471 10.0148 12.0471 9.96762 12.0549C8.88231 12.0156 8.01721 11.1269 8.01721 10.0259C8.01721 8.90125 8.92163 7.99683 10.0463 7.99683C11.1709 7.99683 12.0753 8.90912 12.0753 10.0259C12.0675 11.1269 11.2024 12.0235 10.117 12.0549Z" stroke="#22952E" stroke-width="1.17968" stroke-linecap="round" stroke-linejoin="round"/>
<path d="M7.8285 14.5322C6.7196 15.2715 6.7196 16.4826 7.8285 17.2219C9.08683 18.0634 11.1473 18.0634 12.4057 17.2219C13.5146 16.4826 13.5146 15.2715 12.4057 14.5322C11.1552 13.6986 9.08683 13.6986 7.8285 14.5322Z" stroke="#22952E" stroke-width="1.17968" stroke-linecap="round" stroke-linejoin="round"/>
</svg>
