<svg width="20" height="20" viewBox="0 0 20 20" fill="none" xmlns="http://www.w3.org/2000/svg">
<path d="M14.8358 15.2876H14.2381C13.6089 15.2876 13.0112 15.5314 12.5708 15.9719L11.2259 17.301C10.6125 17.9065 9.6137 17.9065 9.00026 17.301L7.65543 15.9719C7.21502 15.5314 6.60945 15.2876 5.98815 15.2876H5.39831C4.09279 15.2876 3.03894 14.2417 3.03894 12.9519V4.37164C3.03894 3.08185 4.09279 2.03589 5.39831 2.03589H14.8358C16.1413 2.03589 17.1951 3.08185 17.1951 4.37164V12.9519C17.1951 14.2338 16.1413 15.2876 14.8358 15.2876Z" stroke="#22952E" stroke-width="1.17968" stroke-miterlimit="10" stroke-linecap="round" stroke-linejoin="round"/>
<path d="M10.3373 12.2204C10.2193 12.2597 10.0227 12.2597 9.89685 12.2204C8.87445 11.8665 6.578 10.4116 6.578 7.93422C6.578 6.84104 7.45883 5.96021 8.54414 5.96021C9.18904 5.96021 9.75528 6.26692 10.1171 6.74666C10.4788 6.26692 11.0451 5.96021 11.69 5.96021C12.7753 5.96021 13.6561 6.84104 13.6561 7.93422C13.6482 10.4116 11.3597 11.8665 10.3373 12.2204Z" stroke="#22952E" stroke-width="1.17968" stroke-linecap="round" stroke-linejoin="round"/>
</svg>
