<svg width="20" height="20" viewBox="0 0 20 20" fill="none" xmlns="http://www.w3.org/2000/svg">
<path d="M11.2416 12.4397H4.13996C2.70861 12.4397 1.79632 10.9062 2.4884 9.64783L4.32084 6.31324L6.03531 3.19101C6.75099 1.89336 8.62275 1.89336 9.33842 3.19101L11.0608 6.31324L11.8865 7.81537L12.8932 9.64783C13.5853 10.9062 12.673 12.4397 11.2416 12.4397Z" stroke="#22952E" stroke-width="1.17968" stroke-linecap="round" stroke-linejoin="round"/>
<path d="M17.9816 12.8329C17.9816 15.6563 15.693 17.9449 12.8697 17.9449C10.0463 17.9449 7.75769 15.6563 7.75769 12.8329C7.75769 12.6992 7.76556 12.5734 7.77342 12.4397H11.2417C12.673 12.4397 13.5853 10.9061 12.8932 9.64777L11.8866 7.81532C12.2012 7.7524 12.5315 7.72095 12.8697 7.72095C15.693 7.72095 17.9816 10.0095 17.9816 12.8329Z" stroke="#22952E" stroke-width="1.17968" stroke-linecap="round" stroke-linejoin="round"/>
</svg>
